<?xml version="1.0" encoding="utf-8"?>
<!-- Generator: Adobe Illustrator 23.0.3, SVG Export Plug-In . SVG Version: 6.00 Build 0)  -->
<svg version="1.1" id="Calque_1" xmlns="http://www.w3.org/2000/svg" xmlns:xlink="http://www.w3.org/1999/xlink" x="0px" y="0px"
	 viewBox="0 0 595.28 841.89" style="enable-background:new 0 0 595.28 841.89;" xml:space="preserve">
<style type="text/css">
	.st0{fill:none;stroke:#000000;stroke-width:12;stroke-miterlimit:10;}
</style>
<g>
	<path class="st0" d="M278.76,334.68l-44.91-13.19c-1.17-0.34-2.42-0.36-3.6-0.05l-46.94,12.49c-0.38,0.1-0.77,0.16-1.16,0.18
		c-0.63,0.03-1.15,0.5-1.15,1.14l-0.32,136.77c0,0.57,0.42,1.08,0.99,1.14c0.65,0.07,1.31,0.03,1.96-0.14l46.13-11.77
		c0.55-0.14,1.12-0.2,1.69-0.16c0.63,0.04,1.15-0.51,1.15-1.14l-0.25-138.75l0.25,139.22c0,0.51,0.34,0.96,0.84,1.1l41.66,11.57
		c4.25,1.18,8.45-2.02,8.45-6.43V341.08C283.55,338.12,281.6,335.52,278.76,334.68z"/>
	<path class="st0" d="M178.51,332.97l-44.61-34.42c-0.79-0.61-1.7-0.97-2.64-1.09c-0.7-0.09-1.32,0.43-1.32,1.13v4.92v132.69V303.51
		v-4.6c0-0.8-0.81-1.38-1.56-1.07c-0.44,0.18-0.85,0.42-1.24,0.71l-46.1,35.54c-1.64,1.26-2.6,3.21-2.6,5.28v121.27
		c0,5.5,6.27,8.63,10.67,5.34l37.62-28.21c2.4-1.8,5.72-1.78,8.09,0.07l44.02,34.2c0.01,0,0.01,0.01,0.02,0.01
		c0.73,0.56,1.8-0.01,1.8-0.93L181,334.93c0-0.5-0.32-0.93-0.8-1.08C179.6,333.66,179.02,333.36,178.51,332.97z"/>
</g>
</svg>
